<?xml version="1.0" encoding="UTF-8"?>
<svg width="99px" height="99px" viewBox="0 0 99 99" version="1.1" xmlns="http://www.w3.org/2000/svg" xmlns:xlink="http://www.w3.org/1999/xlink">
    <!-- Generator: Sketch 43.1 (39012) - http://www.bohemiancoding.com/sketch -->
    <title>Group</title>
    <desc>Created with Sketch.</desc>
    <defs></defs>
    <g id="Page-1" stroke="none" stroke-width="1" fill="none" fill-rule="evenodd">
        <g id="Group">
            <circle id="Oval-2" fill="#000000" cx="49.4927616" cy="49.4927616" r="49.4927616"></circle>
            <path d="M50.8253403,69.5579311 L50.8710387,69.7164011 C53.2883825,69.0962796 55.2583249,69.2844781 56.8513788,70.0559447 C58.0501003,70.6367559 59.320809,71.4151018 59.977784,72.4804136 L60.1586118,72.4121117 C60.2723663,68.4250545 53.1589039,68.6970333 50.8253403,69.5579311 Z M58.1653289,67.6999005 C59.6379948,67.6546935 63.3076205,66.2051226 62.8545682,63.7361838 L62.9678312,63.6907312 C65.0748686,65.5702596 62.0167653,67.9723707 58.1653289,67.8586162 L58.1653289,67.6999005 Z M61.4955831,68.515665 C62.9908524,67.7228234 64.3723672,67.4960515 65.3013211,67.4960515 C67.5668285,67.4960515 69.6058098,68.7421912 69.3561888,70.8261337 L69.2203222,70.8261337 C67.9515791,69.2180927 66.1172576,68.1078196 63.6927887,68.1078196 C62.9677575,68.1078196 61.9712389,68.515665 61.5631478,68.674135 L61.4955831,68.515665 Z M65.6411349,65.7972281 C66.7735201,65.2535161 69.0847259,63.3051944 68.359449,61.2212519 L68.4727121,61.1536872 C71.2362332,63.1919314 67.5894566,65.5702105 65.7091911,65.9104911 L65.6411349,65.7972281 Z M70.3984794,64.8917376 C71.2362823,63.7362575 72.4374607,62.603381 73.7737686,62.603381 C75.1103221,62.603381 75.4049044,63.3733734 75.4503571,63.7583696 L75.382301,63.8490292 C73.9553335,63.3733734 72.0519731,63.2141663 70.4660442,65.0040179 L70.3984794,64.8917376 Z M72.0746503,61.2889149 C72.8222849,60.3604524 73.3207899,59.5902143 73.3207899,58.4347343 C73.3207899,57.8458154 73.5247126,57.3021034 73.8418984,57.3021034 C74.3175542,57.3021034 74.5214769,57.6418927 74.4308173,58.2988677 C74.2792266,59.3983304 72.9360394,60.7225995 72.1653099,61.4476307 L72.0746503,61.2889149 Z M34.091444,67.3375815 C35.9945587,69.0291571 39.0148258,72.8958262 36.68937,74.979523 L36.5080508,74.919329 C36.7195898,73.620366 36.7195898,70.0261671 33.940836,67.4287325 L34.091444,67.3375815 Z M37.9576954,70.4490241 L38.1087948,70.3583645 C39.5591028,71.5968878 42.7606891,72.986019 43.6061084,72.0499401 C43.848113,72.3214276 43.9721865,72.7317299 43.598492,72.9553078 C42.541288,73.5901707 40.3743022,72.8349197 37.9576954,70.4490241 Z M40.434742,73.4390468 C42.1263176,74.7082813 43.5154488,75.9463132 42.4280249,77.6978371 L42.3076368,77.6378888 C42.0960977,76.0062615 41.4012864,74.5274535 40.3138625,73.5301978 L40.434742,73.4390468 Z M43.5456932,74.5571328 L43.6665727,74.4659818 C45.0259754,75.4632375 47.4420909,75.2217242 48.0160227,74.738452 C48.2882472,74.9794739 48.3789068,75.3114011 48.1673677,75.5236772 C47.4728021,76.2184886 45.1768291,75.9764839 43.5456932,74.5571328 Z M49.0727599,78.3533381 C48.9690787,79.2786066 46.3868769,78.1128075 45.433354,76.9774741 L45.5856818,76.8747757 C46.5866229,77.8403373 49.1562945,77.6081603 49.0727599,78.3533381 Z M10.8334218,60.0278373 C12.5402302,58.0954855 15.3944109,57.2191093 17.9019229,57.2191093 C25.6342784,57.2191093 32.4602835,64.0458515 32.4602835,69.573385 C32.4602835,72.321919 30.1950218,73.9525634 28.6545455,73.9525634 C27.114315,73.9525634 25.8757917,73.1376097 25.513399,72.7145316 L25.6342784,72.5032382 C26.4497235,72.835411 27.0234097,72.8958508 27.4769534,72.8958508 C28.6243257,72.8958508 30.7991735,71.9285693 30.7991735,69.2105009 C30.7991735,61.9007322 23.4596763,57.5512822 17.9019229,57.5512822 C13.7787535,57.5512822 11.860406,59.2131293 10.9845211,60.1189883 L10.8334218,60.0278373 Z M19.3817138,59.1823198 C21.9870105,60.0211054 23.7763707,61.9915392 23.7763707,64.6646463 C23.7763707,67.3375078 21.0128496,68.5612896 19.4269207,67.3832061 L19.5401838,67.2018869 C20.5824008,67.406301 22.9609256,66.47661 22.9609256,63.871559 C22.9609256,61.2657709 20.92219,59.9751614 19.3136576,59.317695 L19.3817138,59.1823198 Z M31.5241801,62.9881069 C37.5047659,66.7488837 45.2525999,75.2674472 64.2365744,75.2674472 C82.4503107,75.2674472 86.4383507,64.9799157 86.4383507,62.0350754 C86.4383507,59.0902352 85.1988447,57.1581291 83.8399333,56.2527614 L83.8998817,56.0412223 C86.4373679,57.0986721 88.3707025,59.1224206 88.3707025,62.4746148 C88.3707025,67.6547427 80.547196,75.810422 64.1913674,75.810422 C46.56655,75.810422 39.0000352,68.4249808 31.4637404,63.108495 L31.5241801,62.9881069 Z M37.99848,65.1940345 C41.2452732,66.8256618 44.3687301,67.6998268 49.3756465,67.6998268 C53.90617,67.6998268 56.2851862,64.9815127 56.1719232,63.8034292 L56.3529967,63.668054 C57.6667011,65.2996812 56.3529967,68.2892371 50.3272039,68.2892371 C45.2070244,68.2892371 40.4951817,66.7487608 37.9124885,65.3441511 L37.99848,65.1940345 Z M75.5095192,39.6998649 L75.5095192,39.1556615 L88.2315928,39.1556615 C91.526787,39.1556615 93.5903373,39.1556615 93.5959882,39.1566443 L93.5959882,39.6998649 L75.5095192,39.6998649 Z M31.4939357,39.6998649 L31.4939357,39.1556615 C41.2601129,39.1556615 54.2406524,39.1556615 66.5686392,39.1566443 L66.5686392,39.6998649 L31.4939357,39.6998649 Z M4.55056356,39.6998649 L4.55056356,39.1566443 L19.5305282,39.1566443 L19.5305282,39.6998649 L4.55056356,39.6998649 Z M73.656771,52.5338011 L73.815241,52.1935205 C74.819376,52.1067919 75.4731571,52.2861456 75.9338259,51.2987175 C76.3940032,50.3115351 78.1909798,46.4573962 78.1909798,46.4573962 C78.1909798,46.4573962 77.1337758,46.677043 76.6131587,46.6549309 L76.742883,46.3770556 C77.7457896,46.2239907 79.0145327,46.0431629 79.6938655,45.771184 L80.0110513,45.7940332 L78.7391142,48.5216835 L78.8781747,48.512593 C80.0110513,46.9035692 80.8264964,45.771184 82.7296111,45.771184 C84.6327258,45.771184 83.8850911,48.512593 82.2313518,49.0332101 L82.0726361,48.8518909 C82.5256884,48.1723124 82.6618007,46.9721167 81.6647907,46.9721167 C80.6680264,46.9721167 78.7074202,48.7312571 77.1241939,52.1264471 C77.7956646,52.2261973 78.9280498,52.1210419 79.4943653,51.8716666 L79.3766797,52.2957275 C78.7880065,52.4996502 77.9720701,52.5217623 76.9298531,52.5448572 C75.8881275,52.5674607 74.6083283,52.4652536 73.656771,52.5338011 Z M53.234257,52.2506925 C54.4425604,52.5074386 56.0884377,51.873067 56.8436887,50.9055398 L56.9950338,51.0271564 C56.54149,53.1715386 53.8836157,52.567387 52.415618,52.4686196 L52.4640189,52.2349684 C53.476016,51.2836567 54.0669004,50.5453583 54.6661383,49.2596626 C55.0110871,48.5196443 56.0063772,46.136697 54.617246,46.136697 C52.9256704,46.136697 50.9788229,48.7314291 49.3973164,52.1263734 C50.0680501,52.2261235 51.1996982,52.1212139 51.7662593,51.8715929 L51.6483281,52.2958995 C51.0594092,52.4998222 50.2447012,52.5219343 49.2029756,52.5447835 C48.1610043,52.567387 46.8807138,52.4651799 45.9296478,52.5337274 L46.0881179,52.1936925 C47.0922529,52.1067182 47.7460339,52.2863176 48.2062113,51.2986438 C48.66688,50.3114614 50.4631196,46.4573225 50.4631196,46.4573225 C50.4631196,46.4573225 49.4068983,46.6769693 48.8855441,46.6551029 L49.0152685,46.3772275 C50.018175,46.2241627 51.2859354,46.0430892 51.9655139,45.7711103 L52.2826997,45.7942052 L51.0110083,48.5216098 L51.1503145,48.5125193 C52.2826997,46.9034955 53.0983905,45.7711103 55.0010138,45.7711103 C56.5112702,45.7711103 56.9709562,46.4634647 56.97587,47.3383668 C56.9839777,48.8835112 55.2022339,51.1502471 53.234257,52.2506925 Z M67.7214167,49.0225717 C68.6368576,47.0585259 70.4969765,45.7711103 72.7848418,45.7711103 C75.0498578,45.7711103 75.6078198,47.0464871 75.1405174,48.0820704 C74.514745,49.4675163 71.5976677,49.7279477 69.2793369,49.734827 C68.9877029,50.8369923 69.1186557,52.3528996 70.372166,52.3528996 C71.8443405,52.3528996 72.9541222,51.5372088 73.9059252,50.6306127 L74.2796197,50.7099706 C73.6452481,51.479963 72.331298,52.7148009 70.372166,52.7148009 C68.4122969,52.7148009 66.8057301,50.9858805 67.7214167,49.0225717 Z M69.3719621,49.4313999 C71.9612889,49.3888955 73.4106142,47.9737211 73.6452481,47.469811 C73.8985545,46.9270818 73.6000412,46.1108996 72.7391434,46.1108996 C71.2441198,46.1108996 70.2915797,47.4324661 69.4655699,49.2036452 C69.4326475,49.2741583 69.4014449,49.3517963 69.3719621,49.4313999 Z M44.8758589,45.7711103 C47.1413663,45.7711103 47.6998197,47.0464871 47.2320259,48.0820704 C46.6062535,49.4675163 43.6891762,49.7279477 41.3705997,49.734827 C41.0792114,50.8369923 41.2101641,52.3528996 42.4636745,52.3528996 C43.9358489,52.3528996 45.046122,51.5372088 45.9974337,50.6306127 L46.3711282,50.7099706 C45.7367566,51.479963 44.4228065,52.7148009 42.4636745,52.7148009 C40.5038054,52.7148009 38.8972385,50.9858805 39.8129252,49.0225717 C40.7283661,47.0585259 42.5879936,45.7711103 44.8758589,45.7711103 Z M45.7367566,47.469811 C45.990063,46.9270818 45.6915496,46.1108996 44.8306519,46.1108996 C43.3356283,46.1108996 42.3830882,47.4324661 41.5570784,49.2036452 C41.524156,49.2741583 41.4929533,49.3517963 41.4634705,49.4313999 C44.0527974,49.3888955 45.5021227,47.9737211 45.7367566,47.469811 Z M64.9444072,47.243899 C65.7116971,45.5972847 67.8661527,38.3179815 71.6043259,38.3179815 C72.1937362,38.3179815 72.5784867,38.4993007 72.8050129,38.6130552 L72.7143533,38.9297496 C71.9898135,38.6580165 70.3223155,38.3710506 69.1955812,40.787166 C68.0688469,43.2032814 66.1219994,52.6581694 60.8890482,52.6581694 C57.5818152,52.6581694 58.0166865,49.8826095 58.6235408,48.5802069 C59.2311321,47.2778042 60.9116517,45.7709875 62.9729907,45.7709875 C64.060906,45.7709875 64.9444072,46.3834926 64.9444072,47.243899 Z M64.0830181,49.3283329 C65.1252351,47.0849376 64.2874322,46.1564751 63.2226118,46.1564751 C62.6108437,46.1564751 61.5814026,46.4736609 60.5042977,48.7841296 C59.4264557,51.0945983 60.0281505,52.3404922 61.0023113,52.3404922 C61.9764721,52.3404922 62.834913,52.0151987 64.0830181,49.3283329 Z M37.5589406,45.113693 L37.7623719,44.9328652 C38.8952485,46.6320572 38.8271923,47.5384076 38.4650453,48.8518663 C38.1218164,50.0975146 36.6980428,52.5674361 34.1605566,52.5674361 C31.6235617,52.5674361 31.2746819,50.2520536 32.0156829,48.6646505 C32.7554555,47.0762647 33.1097405,46.510932 33.1097405,46.510932 C33.1097405,46.510932 32.1667823,46.6770185 31.6456738,46.6549064 L31.7751524,46.3772767 C32.778059,46.2242118 34.136479,46.0431383 34.8160575,45.7711595 L35.1786959,45.7711595 C34.3730784,47.4986058 31.4650917,52.2728538 34.1605566,52.2507417 C36.8565129,52.2281382 38.3967435,46.8133764 37.5589406,45.113693 Z M30.9214534,45.9069032 C29.9924995,46.6999905 29.4588609,47.607078 28.814416,48.9881014 C28.1699712,50.3696162 28.0628503,52.1024678 28.6333425,52.2506188 C29.2448649,52.4090889 29.720275,51.7516225 30.1057626,51.0044792 L30.3998535,51.0946474 C29.9924995,51.9324503 29.6527103,52.6130116 28.2481006,52.6130116 C26.8434909,52.6130116 26.9341505,51.185307 27.0926205,50.6192373 L27.0250558,50.6042502 C26.2548177,51.6091223 25.4917045,52.5975331 23.9740774,52.5975331 C22.4562047,52.5975331 20.7933748,51.0509146 21.7238028,49.0561575 C22.757912,46.838314 25.3032603,45.6577735 27.6594273,45.7484331 C29.4497703,45.8177177 30.3096853,45.9069032 30.8533973,45.6577735 L30.9214534,45.9069032 Z M27.0926205,49.4180589 C27.9913545,47.4908666 28.3387602,46.8358571 28.8593773,46.1108259 C27.1378275,45.9526015 24.7666734,46.6147361 23.4908052,49.3504941 C22.642929,51.1686001 23.1741108,52.2808387 23.9662154,52.2506188 C25.1442989,52.2051662 26.1938865,51.346234 27.0926205,49.4180589 Z M28.7319379,43.0689381 C29.571952,42.208286 29.7820169,41.4994704 29.6694909,40.5727277 C29.5002105,39.1774542 28.1309802,38.2180348 26.4256459,38.31066 C23.2700036,38.4819059 21.7344412,43.173602 20.1639907,46.1636492 C18.5932946,49.1541878 16.0494204,52.3486491 11.6395307,54.176337 C11.2864742,54.3222769 11.1017153,54.4365227 11.1471679,54.5664927 C11.1884438,54.6868808 11.5243021,54.5746005 11.7392808,54.5006478 C12.3146868,54.3040958 14.6995996,53.5640776 16.9348871,53.5640776 C21.3300354,53.5640776 25.7652312,54.9691786 29.9785689,57.1432894 C34.1921523,59.3176458 38.9548528,63.2140435 45.1167579,63.2140435 C53.7702052,63.2140435 54.2689559,57.0988195 52.8643462,55.8750376 L53.0456654,55.6030588 C53.7702052,55.8750376 55.0841553,56.6447844 54.7674609,58.3213729 C54.0053305,62.3494604 47.8655376,64.4378253 41.5825073,64.1660922 C37.6900408,63.9977945 31.4335451,61.2659675 27.0383967,58.7292183 C22.6437398,56.1922234 19.4215155,54.5468375 15.9079029,54.3500398 C14.5639787,54.2743673 12.9040971,54.4723935 11.7758886,54.861075 C11.3181682,55.0190537 10.7941114,55.0325666 10.6430121,54.731105 C10.5071455,54.4593719 10.90934,54.1606129 11.6793325,53.7453968 C13.8954562,52.5506063 14.9900051,50.0303184 17.119646,45.9980542 C18.9753425,42.4834588 22.1668555,37.8878275 26.4256459,37.8878275 C28.9297183,37.8878275 30.0321293,39.3106182 30.1385131,40.5702708 C30.2220477,41.5604015 29.8989654,42.6377521 29.0321711,43.3699083 L28.7319379,43.0689381 Z M21.280406,33.2750961 C21.1845869,33.3217772 21.0691126,33.3635445 20.9339832,33.400398 C20.7988537,33.4372515 20.6475086,33.4704197 20.4806851,33.4999024 C20.3133702,33.5293852 20.1389303,33.5441266 19.9573654,33.5441266 C19.5691752,33.5441266 19.2104678,33.4888464 18.8812433,33.3782859 C18.5520187,33.2677254 18.2682467,33.0994278 18.0299274,32.873393 C17.7913624,32.6473582 17.6048837,32.3709569 17.4697542,32.0441892 C17.334379,31.7174215 17.26706,31.3452012 17.26706,30.9275282 C17.26706,30.5098552 17.334379,30.1376349 17.4697542,29.8108672 C17.6048837,29.4840995 17.794065,29.2076983 18.0372981,28.9816635 C18.2805312,28.7556287 18.5716739,28.5836457 18.9107261,28.4657145 C19.2497782,28.3477833 19.6229813,28.2888177 20.0310724,28.2888177 C20.3553832,28.2888177 20.651194,28.3219858 20.9192418,28.3883221 C21.1870438,28.4546584 21.4241347,28.5347534 21.6305143,28.6278699 C21.5912039,28.6966631 21.5592642,28.7900253 21.5346952,28.9079565 C21.5101262,29.0258877 21.490471,29.1241637 21.4757296,29.2027845 L21.4315054,29.2175259 C21.3823674,29.1585603 21.3135742,29.092224 21.2251258,29.018517 C21.1366774,28.94481 21.0334876,28.8735599 20.9155564,28.8047667 C20.7976252,28.7359735 20.6649526,28.678482 20.5175386,28.6315552 C20.3701246,28.5848741 20.2079692,28.5615336 20.0310724,28.5615336 C19.7409125,28.5615336 19.4721277,28.6082147 19.2239808,28.7015769 C18.9758339,28.7949391 18.7596267,28.9386677 18.5753592,29.1327628 C18.3910917,29.3268579 18.2473631,29.5725479 18.1441733,29.8698328 C18.0409835,30.1671177 17.9893886,30.5196828 17.9893886,30.9275282 C17.9893886,31.3353736 18.0409835,31.6879387 18.1441733,31.9852236 C18.2473631,32.2825085 18.3910917,32.5281985 18.5753592,32.7222936 C18.7596267,32.9166344 18.9758339,33.0601174 19.2239808,33.1534796 C19.4721277,33.2468418 19.7409125,33.2935229 20.0310724,33.2935229 C20.2079692,33.2935229 20.3711074,33.2714108 20.521224,33.2271866 C20.6710949,33.1829624 20.8086813,33.130139 20.9339832,33.0687165 C21.059285,33.007294 21.1723024,32.9409577 21.2730353,32.8697076 C21.3735226,32.7987032 21.4585313,32.7358066 21.5273245,32.6817548 L21.5568073,32.7112376 L21.490471,33.1461089 C21.4462468,33.1854193 21.3762251,33.228415 21.280406,33.2750961 Z M28.1755483,33.4483076 C28.1067551,33.43848 28.0416473,33.4335662 27.9802248,33.4335662 L27.7849012,33.4335662 L27.5895777,33.4335662 C27.5281552,33.4335662 27.4630473,33.43848 27.3942541,33.4483076 C27.3598575,33.3352902 27.3131764,33.1989322 27.2542108,33.0392337 C27.1952452,32.8795352 27.1301374,32.712466 27.0588873,32.5380261 C26.9876372,32.3638319 26.9151586,32.1866894 26.8414516,32.0073357 C26.7677447,31.827982 26.6989515,31.6572275 26.6350721,31.4950721 C26.4778305,31.4901583 26.318132,31.4864729 26.1559766,31.484016 C25.9938212,31.4815591 25.8316658,31.4803307 25.6695104,31.4803307 C25.5171826,31.4803307 25.3673117,31.4815591 25.2198977,31.484016 C25.0724837,31.4864729 24.9226128,31.4901583 24.770285,31.4950721 C24.6130434,31.8783485 24.4705432,32.2431981 24.3427844,32.589621 C24.2150256,32.9360439 24.1192065,33.2222728 24.0553271,33.4483076 C23.9717925,33.43848 23.8808872,33.4335662 23.7826112,33.4335662 C23.6843352,33.4335662 23.5934299,33.43848 23.5098953,33.4483076 C23.9079131,32.5886383 24.2961033,31.7333914 24.6744659,30.883304 C25.0528285,30.0332166 25.433648,29.1683879 25.8169244,28.2888177 L25.9569677,28.2888177 C26.0748989,28.5738181 26.2026577,28.882159 26.3402441,29.2138405 C26.4778305,29.545522 26.6178738,29.8808888 26.760374,30.219941 C26.9028741,30.5589932 27.0453743,30.8955885 27.1878745,31.2297269 C27.3303747,31.5638653 27.4642758,31.8746631 27.5895777,32.1621204 C27.7148796,32.4495777 27.827897,32.7065695 27.9286299,32.9323586 C28.0293628,33.1583934 28.1116689,33.3303764 28.1755483,33.4483076 Z M24.9103283,31.1560199 C25.0380871,31.1560199 25.1707597,31.1584768 25.3083461,31.1633906 C25.4459325,31.1683044 25.5786051,31.1707613 25.7063639,31.1707613 C25.8439503,31.1707613 25.9815367,31.1695329 26.1191231,31.167076 C26.2564638,31.1646191 26.3942959,31.1609337 26.5318823,31.1560199 L25.7137346,29.2838621 L24.9103283,31.1560199 Z M30.8620701,32.7591225 C30.9284064,32.8502735 31.0094841,32.932334 31.1053032,33.006041 C31.2011223,33.079748 31.3129113,33.139942 31.4406701,33.1866231 C31.5684289,33.2335499 31.7109291,33.2566448 31.8681707,33.2566448 C32.0303261,33.2566448 32.1765116,33.2283904 32.3067273,33.1718817 C32.436943,33.115373 32.5475035,33.0392091 32.6384088,32.94339 C32.7293141,32.8475709 32.7993357,32.7345535 32.8484737,32.6043379 C32.8976117,32.4741222 32.9221807,32.3353073 32.9221807,32.1878933 C32.9221807,31.9618585 32.8644436,31.7825048 32.7489693,31.6498322 C32.633495,31.5171596 32.4897663,31.4065991 32.3177833,31.3181507 C32.1458003,31.2297023 31.9603044,31.1486246 31.7612955,31.0749176 C31.5622866,31.0012106 31.3767907,30.9090769 31.2048077,30.7985164 C31.0328247,30.6879559 30.889096,30.5469298 30.7736217,30.3747012 C30.6581474,30.2027182 30.6004103,29.9717696 30.6004103,29.6818554 C30.6004103,29.4754758 30.6372638,29.2875229 30.7109708,29.1179968 C30.7846778,28.9484707 30.8915529,28.8025309 31.0315962,28.6794402 C31.1716395,28.5568409 31.3399372,28.4607761 31.5364892,28.3919829 C31.7330412,28.3231897 31.9541622,28.2887931 32.1998521,28.2887931 C32.4357145,28.2887931 32.6396372,28.3170475 32.8116202,28.3735562 C32.9836032,28.4300649 33.1433017,28.5172848 33.2907157,28.635216 C33.2464915,28.7189963 33.209638,28.8074447 33.1801552,28.9005612 C33.1506724,28.9939234 33.1211896,29.1118546 33.0917068,29.2543548 L33.0032584,29.2543548 C32.9786894,29.1855616 32.9455213,29.1106261 32.903754,29.0295484 C32.8619867,28.9484707 32.805478,28.873781 32.7342279,28.8047421 C32.6629778,28.7359489 32.5782147,28.6784574 32.4799387,28.6315306 C32.3816627,28.5848495 32.2637315,28.561509 32.1261451,28.561509 C31.9885588,28.561509 31.8620284,28.5836211 31.7465541,28.6278453 C31.6310798,28.6720695 31.5303469,28.7347204 31.4443554,28.8157981 C31.3583639,28.8968758 31.2920276,28.9939234 31.2453465,29.1069408 C31.1986654,29.2199582 31.1753249,29.3428032 31.1753249,29.4754758 C31.1753249,29.7064244 31.233062,29.888235 31.3485363,30.0209076 C31.4640106,30.1535802 31.6077393,30.2653691 31.7797223,30.3562744 C31.9517053,30.4471797 32.1372012,30.5282574 32.3362101,30.5995075 C32.535219,30.6707576 32.7207149,30.7579775 32.8926979,30.8611673 C33.0646809,30.9643571 33.2084096,31.0970297 33.3238839,31.2591851 C33.4393582,31.4213405 33.4970953,31.6377934 33.4970953,31.9078067 C33.4970953,32.1338415 33.4565565,32.3475918 33.3754788,32.5490576 C33.2944011,32.7505234 33.1764699,32.9261917 33.0216852,33.0760626 C32.8669005,33.2259335 32.6777192,33.3414078 32.4541413,33.4224855 C32.2305634,33.5035632 31.9762743,33.5441021 31.6912739,33.5441021 C31.3866183,33.5441021 31.1396998,33.5035632 30.9505185,33.4224855 C30.7613372,33.3414078 30.6028672,33.2492741 30.4751084,33.1460843 C30.5193326,33.0330669 30.5500438,32.9311055 30.5672421,32.8402002 C30.5844404,32.7492949 30.6004103,32.6325922 30.6151517,32.490092 L30.7036001,32.490092 C30.7429105,32.5785404 30.7957338,32.6682173 30.8620701,32.7591225 Z M37.3962447,28.767864 C37.2682402,28.767864 37.1345848,28.7690925 36.9945415,28.7715494 C36.8544982,28.7740063 36.7144549,28.7789201 36.5744116,28.7862908 C36.4343683,28.7936615 36.2992388,28.8025063 36.1690231,28.8120882 C36.0388074,28.8221615 35.9221047,28.8342003 35.8189149,28.8489417 C35.8434839,28.7604933 35.8557684,28.6818725 35.8557684,28.6130793 C35.8557684,28.5590275 35.8434839,28.4828636 35.8189149,28.3845876 C36.1432257,28.3944152 36.4601658,28.4030144 36.7697352,28.4103851 C37.0793046,28.4177558 37.3962447,28.4214411 37.7205555,28.4214411 C38.0448662,28.4214411 38.3618063,28.4177558 38.6713757,28.4103851 C38.9809451,28.4030144 39.2978852,28.3944152 39.622196,28.3845876 C39.5973813,28.4828636 39.5853425,28.5614844 39.5853425,28.62045 C39.5853425,28.6843294 39.5973813,28.7604933 39.622196,28.8489417 C39.5190062,28.8342003 39.4023035,28.8221615 39.2720878,28.8120882 C39.1418721,28.8025063 39.0067426,28.7936615 38.8666993,28.7862908 C38.726656,28.7789201 38.5866127,28.7740063 38.4465694,28.7715494 C38.3065261,28.7690925 38.172625,28.767864 38.0448662,28.767864 C38.0301248,29.2742311 38.0227541,29.7825637 38.0227541,30.2935989 L38.0227541,31.5613593 C38.0227541,31.88567 38.0288964,32.2053127 38.0411809,32.5195502 C38.0534654,32.8340334 38.0669783,33.1438485 38.0817197,33.4482584 C37.9687023,33.4384308 37.8483143,33.433517 37.7205555,33.433517 C37.5927967,33.433517 37.4724086,33.4384308 37.3593912,33.4482584 C37.3741326,33.1438485 37.3876455,32.8340334 37.39993,32.5195502 C37.4119688,32.2053127 37.4183568,31.88567 37.4183568,31.5613593 L37.4183568,30.2935989 C37.4183568,29.7825637 37.4109861,29.2742311 37.3962447,28.767864 Z M42.3162851,29.3391424 C42.3040006,29.0271161 42.2904876,28.7089476 42.2757462,28.3846368 C42.3393799,28.3944644 42.4010481,28.4030635 42.4600137,28.4104342 C42.5189793,28.4178049 42.5779449,28.4214903 42.6369105,28.4214903 C42.6958761,28.4214903 42.7548417,28.4178049 42.8138073,28.4104342 C42.8727729,28.4030635 42.9341954,28.3944644 42.9980748,28.3846368 C42.9833334,28.7089476 42.9698205,29.0271161 42.957536,29.3391424 C42.9452515,29.6514144 42.9391092,29.9693372 42.9391092,30.293648 C42.9391092,30.9127868 42.9413204,31.4496194 42.9464799,31.9041459 C42.951148,32.3586724 42.9560618,32.7652894 42.9612213,33.1239968 C43.3098554,33.1239968 43.6439938,33.1203114 43.9636365,33.1129407 C44.2827878,33.10557 44.6269995,33.0773157 44.9955345,33.0281777 C44.9709655,33.1166261 44.958681,33.1903331 44.958681,33.2492987 C44.958681,33.3033505 44.9709655,33.3696868 44.9955345,33.4483076 C44.769254,33.43848 44.5432192,33.4335662 44.3174301,33.4335662 L43.6393257,33.4335662 L42.957536,33.4335662 C42.7388719,33.4335662 42.5116086,33.43848 42.2757462,33.4483076 C42.2904876,33.143652 42.3040006,32.8340826 42.3162851,32.5195994 C42.3283239,32.2053619 42.3347118,31.8857192 42.3347118,31.5614084 L42.3347118,30.293648 C42.3347118,29.9693372 42.3283239,29.6514144 42.3162851,29.3391424 Z M47.8443099,29.3281109 C47.8320254,29.0136277 47.8185125,28.6991445 47.8037711,28.3846613 C48.0248921,28.3944889 48.2445389,28.4030881 48.4634487,28.4104588 C48.6821128,28.4178295 48.9020054,28.4215148 49.1231264,28.4215148 C49.3442474,28.4215148 49.5629115,28.4178295 49.7791186,28.4104588 C49.9950802,28.4030881 50.2139899,28.3944889 50.4351109,28.3846613 C50.4203695,28.4583683 50.4132445,28.5320753 50.4132445,28.6057823 C50.4132445,28.6794893 50.4203695,28.7531963 50.4351109,28.8269033 C50.2778693,28.8170757 50.133895,28.8072481 50.003925,28.7974205 C49.8737093,28.7875929 49.7361229,28.7777653 49.5911658,28.7679377 C49.4462087,28.7581101 49.2877387,28.749511 49.1157557,28.7421403 C48.9437727,28.7347696 48.7371474,28.7310842 48.4966169,28.7310842 C48.4917031,28.8883258 48.4855608,29.0381967 48.4781901,29.1806969 C48.4708194,29.3231971 48.4671341,29.4853525 48.4671341,29.6671631 C48.4671341,29.8588013 48.4683625,30.0455257 48.4708194,30.2273363 C48.4732763,30.4091469 48.4745048,30.5467333 48.4745048,30.6400955 C48.690712,30.6400955 48.8845614,30.6376386 49.0567901,30.6327248 C49.2287731,30.627811 49.385769,30.6216687 49.5282692,30.614298 C49.6707694,30.6069273 49.8022135,30.5995566 49.9226016,30.5921859 C50.0432354,30.5848152 50.1574812,30.5762161 50.2653391,30.5663885 C50.2508434,30.6400955 50.243227,30.7162594 50.243227,30.7948802 C50.243227,30.8685872 50.2508434,30.9422942 50.2653391,31.0160012 C50.1375803,31.0012598 49.9889379,30.9889753 49.8196575,30.9791477 C49.6501314,30.9693201 49.480851,30.9631778 49.3108335,30.9607209 C49.1415531,30.958264 48.9816089,30.9558071 48.8319837,30.9533502 C48.6821128,30.9508933 48.5629532,30.9496649 48.4745048,30.9496649 C48.4745048,30.9938891 48.4732763,31.0417986 48.4708194,31.0933935 C48.4683625,31.1449884 48.4671341,31.2100963 48.4671341,31.2887171 L48.4671341,31.5761744 L48.4671341,32.0184164 C48.4671341,32.2985029 48.4683625,32.5294515 48.4708194,32.7112621 C48.4732763,32.8930727 48.4769617,33.0306591 48.4818755,33.1240213 L48.9978245,33.1240213 C49.1845489,33.1240213 49.3675879,33.120336 49.5469416,33.1129653 C49.7260496,33.1055946 49.8958214,33.095767 50.0555199,33.0834825 C50.2149727,33.071198 50.3540332,33.0527712 50.4717187,33.0282022 C50.4621368,33.0625988 50.4557489,33.1006808 50.4535377,33.1424481 C50.4510808,33.1842154 50.4496066,33.2222973 50.4496066,33.2566939 C50.4496066,33.3353147 50.457223,33.3991941 50.4717187,33.4483321 C50.2508434,33.4382588 50.0307052,33.4335907 49.8122868,33.4335907 L49.1452385,33.4335907 L48.4745048,33.4335907 C48.2533838,33.4335907 48.0295602,33.4382588 47.8037711,33.4483321 C47.8185125,33.1338489 47.8320254,32.8205942 47.8443099,32.5085679 C47.8563488,32.1965416 47.8627367,31.8783731 47.8627367,31.5540623 L47.8627367,30.2863019 C47.8627367,29.9619911 47.8563488,29.6425941 47.8443099,29.3281109 Z M57.2642117,29.3390933 C57.2516815,29.027067 57.2381686,28.7088984 57.2236729,28.3845876 C57.3661731,28.3944152 57.5059707,28.4030144 57.6438028,28.4103851 C57.7811435,28.4177558 57.9214325,28.4214411 58.0639327,28.4214411 C58.2064329,28.4214411 58.3462305,28.4152989 58.4840626,28.4030144 C58.6214033,28.3907299 58.7616922,28.3845876 58.9041924,28.3845876 C59.1103264,28.3845876 59.3068783,28.4042428 59.4938484,28.4435532 C59.6805728,28.4828636 59.8439567,28.5479715 59.9837543,28.6388768 C60.1237976,28.7300278 60.2346038,28.8489417 60.3156815,28.9963557 C60.3967592,29.1437697 60.437298,29.3280372 60.437298,29.5491582 C60.437298,29.7850206 60.384229,29.9877148 60.2785823,30.1572409 C60.1731813,30.326767 60.0439483,30.4668103 59.8916205,30.5773708 C59.7392927,30.6879313 59.5759089,30.7739228 59.4017147,30.8353453 C59.2270291,30.8967678 59.0688047,30.9375524 58.9260589,30.9569619 C58.9852701,31.0306689 59.0663478,31.1338587 59.1695376,31.2665313 C59.2727274,31.3992039 59.387956,31.5456351 59.5159605,31.7050879 C59.6434736,31.8647864 59.7761462,32.0321013 59.9139783,32.2062955 C60.0515647,32.3809811 60.1842373,32.5480503 60.3117504,32.7075031 C60.4397549,32.8674473 60.5598973,33.0133871 60.6731604,33.1460597 C60.7861778,33.2787323 60.8768374,33.3794652 60.9456306,33.4482584 C60.8719236,33.4384308 60.7984623,33.433517 60.7247553,33.433517 L60.5033886,33.433517 L60.2896383,33.433517 C60.2159313,33.433517 60.1446812,33.4384308 60.075888,33.4482584 C60.002181,33.3450686 59.8903921,33.1902839 59.7407669,32.9839043 C59.590896,32.7775247 59.4250552,32.5564037 59.2429989,32.3205413 C59.0611884,32.0846789 58.8756924,31.850045 58.6867568,31.6166395 C58.4973298,31.383234 58.3241184,31.1854536 58.1671225,31.0232982 L57.8870359,31.0232982 L57.8870359,31.5613593 C57.8870359,31.88567 57.8929324,32.2053127 57.9052169,32.5195502 C57.9175014,32.8340334 57.9312601,33.1438485 57.9457558,33.4482584 C57.8327384,33.4384308 57.7123503,33.433517 57.5845915,33.433517 C57.4568327,33.433517 57.3366903,33.4384308 57.2236729,33.4482584 C57.2381686,33.1438485 57.2516815,32.8340334 57.2642117,32.5195502 C57.2764962,32.2053127 57.2826385,31.88567 57.2826385,31.5613593 L57.2826385,30.2935989 C57.2826385,29.9692881 57.2764962,29.6513652 57.2642117,29.3390933 Z M58.1118422,30.7432116 C58.1926742,30.7483711 58.2823511,30.7505823 58.3808728,30.7505823 C58.5329549,30.7505823 58.6914249,30.733384 58.8560372,30.6989874 C59.0206495,30.6648365 59.1717488,30.6046424 59.3095809,30.5184052 C59.4471673,30.4324137 59.5611675,30.3169394 59.6523185,30.1719823 C59.7432238,30.0270252 59.7884307,29.8439862 59.7884307,29.6228652 C59.7884307,29.431227 59.7530514,29.272757 59.6818013,29.1474551 C59.6105512,29.0221532 59.5184174,28.9226487 59.4054,28.8489417 C59.2923826,28.7752347 59.1695376,28.7248683 59.036865,28.6978424 C58.9041924,28.6708165 58.7737311,28.6573035 58.646218,28.6573035 C58.474235,28.6573035 58.3317348,28.6609889 58.2187174,28.6683596 C58.1057,28.6757303 58.0096352,28.6843294 57.9312601,28.694157 C57.9214325,28.964416 57.9116049,29.2322181 57.9017773,29.4975633 C57.891704,29.7629085 57.8870359,30.0282537 57.8870359,30.2935989 L57.8870359,30.7137288 C57.9555834,30.7284702 58.0307645,30.7382978 58.1118422,30.7432116 Z M63.4184513,29.8108918 C63.5535808,29.4841241 63.7427621,29.2077228 63.9857495,28.981688 C64.2292282,28.7556532 64.5203709,28.5836702 64.8594231,28.465739 C65.1984753,28.3478078 65.5694672,28.2888422 65.9723988,28.2888422 C66.3802441,28.2888422 66.7536929,28.3478078 67.0927451,28.465739 C67.4317973,28.5836702 67.72294,28.7556532 67.9661731,28.981688 C68.2094061,29.2077228 68.3983418,29.4841241 68.5337169,29.8108918 C68.6688464,30.1376594 68.7364112,30.5098798 68.7364112,30.9275528 C68.7364112,31.3452258 68.6688464,31.7174461 68.5337169,32.0442138 C68.3983418,32.3709815 68.2094061,32.6473827 67.9661731,32.8734175 C67.72294,33.0994523 67.4317973,33.26775 67.0927451,33.3783105 C66.7536929,33.488871 66.3802441,33.5441512 65.9723988,33.5441512 C65.5694672,33.5441512 65.1984753,33.488871 64.8594231,33.3783105 C64.5203709,33.26775 64.2292282,33.0994523 63.9857495,32.8734175 C63.7427621,32.6473827 63.5535808,32.3709815 63.4184513,32.0442138 C63.2833218,31.7174461 63.215757,31.3452258 63.215757,30.9275528 C63.215757,30.5098798 63.2833218,30.1376594 63.4184513,29.8108918 Z M67.8592979,29.8698574 C67.7561081,29.5725725 67.6123795,29.3268825 67.428112,29.1327874 C67.2438445,28.9386923 67.0273916,28.7949636 66.7794904,28.7016014 C66.5313435,28.6082392 66.2623129,28.5615581 65.9723988,28.5615581 C65.6873984,28.5615581 65.420579,28.6082392 65.1724321,28.7016014 C64.9245309,28.7949636 64.7083237,28.9386923 64.5240562,29.1327874 C64.3397887,29.3268825 64.1960601,29.5725725 64.0928703,29.8698574 C63.9896805,30.1671422 63.9380856,30.5197074 63.9380856,30.9275528 C63.9380856,31.3353982 63.9896805,31.6879633 64.0928703,31.9852482 C64.1960601,32.2825331 64.3397887,32.5282231 64.5240562,32.7223182 C64.7083237,32.9164133 64.9245309,33.0601419 65.1724321,33.1535041 C65.420579,33.2468663 65.6873984,33.2935474 65.9723988,33.2935474 C66.2623129,33.2935474 66.5313435,33.2468663 66.7794904,33.1535041 C67.0273916,33.0601419 67.2438445,32.9164133 67.428112,32.7223182 C67.6123795,32.5282231 67.7561081,32.2825331 67.8592979,31.9852482 C67.9624877,31.6879633 68.0140826,31.3353982 68.0140826,30.9275528 C68.0140826,30.5197074 67.9624877,30.1671422 67.8592979,29.8698574 Z M75.2115218,33.2750961 C75.1157027,33.3217772 75.0002284,33.3635445 74.865099,33.400398 C74.7299695,33.4372515 74.5788701,33.4704197 74.4118009,33.4999024 C74.2447317,33.5293852 74.0700461,33.5441266 73.8884812,33.5441266 C73.500291,33.5441266 73.1415836,33.4888464 72.8123591,33.3782859 C72.4833801,33.2677254 72.1993625,33.0994278 71.9612889,32.873393 C71.7227239,32.6473582 71.5359995,32.3709569 71.40087,32.0441892 C71.2657405,31.7174215 71.1981758,31.3452012 71.1981758,30.9275282 C71.1981758,30.5098552 71.2657405,30.1376349 71.40087,29.8108672 C71.5359995,29.4840995 71.7254265,29.2076983 71.9684139,28.9816635 C72.211647,28.7556287 72.5030353,28.5836457 72.8418419,28.4657145 C73.180894,28.3477833 73.5543428,28.2888177 73.9621882,28.2888177 C74.286499,28.2888177 74.5825555,28.3219858 74.8503576,28.3883221 C75.1181596,28.4546584 75.3552505,28.5347534 75.5616301,28.6278699 C75.5223197,28.6966631 75.49038,28.7900253 75.465811,28.9079565 C75.441242,29.0258877 75.4215868,29.1241637 75.4068454,29.2027845 L75.3626212,29.2175259 C75.3134832,29.1585603 75.2449357,29.092224 75.1562416,29.018517 C75.0677932,28.94481 74.9646034,28.8735599 74.8469179,28.8047667 C74.728741,28.7359735 74.5960684,28.678482 74.4489001,28.6315552 C74.3012404,28.5848741 74.1393307,28.5615336 73.9621882,28.5615336 C73.672274,28.5615336 73.4032435,28.6082147 73.1550966,28.7015769 C72.9069497,28.7949391 72.6907425,28.9386677 72.506475,29.1327628 C72.3222075,29.3268579 72.1784789,29.5725479 72.0752891,29.8698328 C71.9720993,30.1671177 71.9205044,30.5196828 71.9205044,30.9275282 C71.9205044,31.3353736 71.9720993,31.6879387 72.0752891,31.9852236 C72.1784789,32.2825085 72.3222075,32.5281985 72.506475,32.7222936 C72.6907425,32.9166344 72.9069497,33.0601174 73.1550966,33.1534796 C73.4032435,33.2468418 73.672274,33.2935229 73.9621882,33.2935229 C74.1393307,33.2935229 74.3024689,33.2714108 74.4523398,33.2271866 C74.6024563,33.1829624 74.7397971,33.130139 74.865099,33.0687165 C74.9906465,33.007294 75.1036639,32.9409577 75.2043968,32.8697076 C75.304884,32.7987032 75.3896471,32.7358066 75.4584403,32.6817548 L75.4879231,32.7112376 L75.4215868,33.1461089 C75.3773626,33.1854193 75.3075866,33.228415 75.2115218,33.2750961 Z M78.3515137,32.5195502 C78.3637982,32.2053127 78.3699404,31.88567 78.3699404,31.5613593 L78.3699404,30.2935989 C78.3699404,29.9692881 78.3637982,29.6513652 78.3515137,29.3390933 C78.3389835,29.027067 78.3257162,28.7088984 78.3109748,28.3845876 C78.3748542,28.3944152 78.4362767,28.4030144 78.4952423,28.4103851 C78.5542079,28.4177558 78.6129278,28.4214411 78.6721391,28.4214411 C78.7311047,28.4214411 78.7900703,28.4177558 78.8487902,28.4103851 C78.9080015,28.4030144 78.969424,28.3944152 79.0330577,28.3845876 C79.018562,28.7088984 79.0048034,29.027067 78.9925189,29.3390933 C78.9804801,29.6513652 78.9743378,29.9692881 78.9743378,30.2935989 L78.9743378,30.6989874 C78.9743378,30.7382978 78.9890792,30.757953 79.018562,30.757953 C79.0382172,30.757953 79.0726138,30.7358409 79.1217518,30.6916167 C79.2937348,30.5442027 79.4740713,30.3773792 79.6634982,30.1904091 C79.8524339,30.0036847 80.0430893,29.8098353 80.2347275,29.6081238 C80.42612,29.4069037 80.615547,29.2017526 80.8022714,28.9926704 C80.9887501,28.7838339 81.1683495,28.5811396 81.3403325,28.3845876 C81.3943843,28.3944152 81.4459792,28.4030144 81.4951172,28.4103851 C81.5440095,28.4177558 81.5931475,28.4214411 81.6425311,28.4214411 C81.7014967,28.4214411 81.7604623,28.4177558 81.8194279,28.4103851 C81.8781479,28.4030144 81.9373591,28.3944152 81.9963247,28.3845876 C81.8243417,28.5320016 81.6302466,28.7064415 81.4140395,28.9079073 C81.1975866,29.1096188 80.9801509,29.3157527 80.7617325,29.5270461 C80.5430684,29.7383395 80.3339862,29.9459475 80.135223,30.1498702 C79.9362141,30.3540386 79.7701277,30.5321639 79.6374551,30.684246 C80.0354729,31.1316475 80.4374217,31.5871567 80.8428102,32.0515108 C81.2481987,32.5158649 81.6597294,32.9814474 82.0774024,33.4482584 C82.0036954,33.4384308 81.9297428,33.433517 81.8562814,33.433517 L81.6351604,33.433517 L81.4324662,33.433517 C81.3661299,33.433517 81.2983195,33.4384308 81.229772,33.4482584 C81.0528752,33.2467926 80.8575516,33.0160897 80.6438013,32.7554126 C80.430051,32.4949812 80.2209688,32.243149 80.0170461,31.9999159 C79.8131235,31.7566828 79.628856,31.5380187 79.4642437,31.3439236 C79.2996314,31.1498285 79.1780148,31.0137163 79.0996397,30.9348498 C79.0603293,30.8955394 79.0308465,30.8758842 79.0111913,30.8758842 C78.9863766,30.8758842 78.9743378,30.8906256 78.9743378,30.9201084 L78.9743378,31.5613593 C78.9743378,31.88567 78.9804801,32.2053127 78.9925189,32.5195502 C79.0048034,32.8340334 79.018562,33.1438485 79.0330577,33.4482584 C78.9200403,33.4384308 78.7996522,33.433517 78.6721391,33.433517 C78.5441346,33.433517 78.4239922,33.4384308 78.3109748,33.4482584 C78.3257162,33.1438485 78.3389835,32.8340334 78.3515137,32.5195502 Z" id="Combined-Shape" fill="#FFFFFF"></path>
        </g>
    </g>
</svg>