<?xml version="1.0" encoding="UTF-8"?>
<svg width="99px" height="75px" viewBox="0 0 99 75" version="1.1" xmlns="http://www.w3.org/2000/svg" xmlns:xlink="http://www.w3.org/1999/xlink">
    <!-- Generator: Sketch 43.1 (39012) - http://www.bohemiancoding.com/sketch -->
    <title>Group</title>
    <desc>Created with Sketch.</desc>
    <defs></defs>
    <g id="Page-1" stroke="none" stroke-width="1" fill="none" fill-rule="evenodd">
        <g id="iPhone-7" transform="translate(-138.000000, 0.000000)">
            <g id="Group" transform="translate(138.000000, -24.000000)">
                <circle id="Oval-2" fill="#000000" cx="49.4927616" cy="49.4927616" r="49.4927616"></circle>
                <path d="M50.7357346,73.7360989 L50.7790958,73.8864643 C53.0728096,73.2980576 54.9420033,73.4766311 56.4535837,74.2086427 C57.5909991,74.7597494 58.7967199,75.4982884 59.4200953,76.509117 L59.5916751,76.4443084 C59.6996118,72.661161 52.9499529,72.91923 50.7357346,73.7360989 Z M57.7003346,71.9730935 C59.0976839,71.9301986 62.5796342,70.5547629 62.1497523,68.212093 L62.2572228,68.1689649 C64.2565,69.9523687 61.3547971,72.2316288 57.7003346,72.123692 L57.7003346,71.9730935 Z M60.8602697,72.7471374 C62.2790665,71.994844 63.5899266,71.7796699 64.4713711,71.7796699 C66.6210138,71.7796699 68.5557155,72.9620783 68.3188609,74.9394419 L68.1899429,74.9394419 C66.986087,73.4136409 65.2455781,72.3601504 62.9451038,72.3601504 C62.2571528,72.3601504 61.3115991,72.7471374 60.924379,72.8975028 L60.8602697,72.7471374 Z M64.7938058,70.1677293 C65.8682775,69.6518244 68.0612814,67.8031456 67.3730973,65.8257821 L67.4805678,65.7616728 C70.1027543,67.6956752 66.6424846,69.9523221 64.8583814,70.2751998 L64.7938058,70.1677293 Z M69.3078457,69.3085483 C70.1028009,68.2121629 71.2425475,67.137225 72.5105126,67.137225 C73.7787109,67.137225 74.0582274,67.8678377 74.1013555,68.2331441 L74.0367799,68.3191671 C72.6827918,67.8678377 70.8767748,67.7167729 69.371955,69.4150863 L69.3078457,69.3085483 Z M70.8982922,65.8899846 C71.6076907,65.0090064 72.0807006,64.2781605 72.0807006,63.1817752 C72.0807006,62.6229753 72.2741941,62.1070704 72.5751581,62.1070704 C73.0264875,62.1070704 73.219981,62.4294818 73.133958,63.0528572 C72.99012,64.0960902 71.7156274,65.3526322 70.9843152,66.0405832 L70.8982922,65.8899846 Z M34.857659,71.6293045 C36.6634428,73.234368 39.5292445,76.9032843 37.3227194,78.8804147 L37.1506734,78.8232992 C37.3513937,77.5907689 37.3513937,74.1803879 34.7147536,71.7157938 L34.857659,71.6293045 Z M38.526179,74.5816188 L38.6695506,74.4955958 C40.0456857,75.6707774 43.0835334,76.9888643 43.8857155,76.1006593 C44.1153433,76.3582621 44.2330712,76.7475803 43.8784886,76.9597237 C42.8753531,77.5621179 40.8191934,76.8454926 38.526179,74.5816188 Z M40.876542,77.4187229 C42.4816055,78.623045 43.7996924,79.7977603 42.7678826,81.4597062 L42.6536515,81.4028238 C42.4529311,79.8546428 41.7936545,78.4514653 40.7618447,77.5052122 L40.876542,77.4187229 Z M43.8283901,78.4796267 L43.9430874,78.3931375 C45.2329663,79.3393906 47.5255145,79.110229 48.0700937,78.6516728 C48.3283959,78.8803681 48.4144189,79.1953195 48.2136985,79.3967393 C47.554655,80.0560159 45.3761049,79.826388 43.8283901,78.4796267 Z M49.0727863,82.0816829 C48.9744077,82.9596304 46.5242673,81.8534538 45.6195104,80.7761846 L45.7640477,80.6787385 C46.7137976,81.5949185 49.1520487,81.3746157 49.0727863,82.0816829 Z M12.7891206,64.6934022 C14.4086378,62.8598766 17.1168472,62.0283208 19.4961177,62.0283208 C26.8330178,62.0283208 33.3099209,68.5059233 33.3099209,73.7507625 C33.3099209,76.3587283 31.1605113,77.9059768 29.6988195,77.9059768 C28.2373609,77.9059768 27.0621794,77.1327023 26.7183205,76.7312615 L26.8330178,76.5307743 C27.6067586,76.8459589 28.1511048,76.9033076 28.5814529,76.9033076 C29.6701452,76.9033076 31.7337649,75.9854957 31.7337649,73.4064373 C31.7337649,66.4705117 24.7696312,62.3435054 19.4961177,62.3435054 C15.5838193,62.3435054 13.7635817,63.9203608 12.9324923,64.7798915 L12.7891206,64.6934022 Z M20.9002277,63.8911269 C23.3722819,64.6870146 25.0701289,66.5566746 25.0701289,69.0930711 C25.0701289,71.6292346 22.4479425,72.7904286 20.9431227,71.6725958 L21.0505931,71.5005498 C22.039508,71.6945095 24.2963881,70.8123657 24.2963881,68.3405447 C24.2963881,65.8680243 22.3619195,64.6434203 20.8356522,64.0195786 L20.9002277,63.8911269 Z M32.4216925,67.5022749 C38.0964136,71.0707145 45.4480005,79.1536135 63.4610786,79.1536135 C80.7433108,79.1536135 84.5273907,69.3922167 84.5273907,66.5979843 C84.5273907,63.8037518 83.3512767,61.9704593 82.0618641,61.1113948 L82.1187465,60.9106745 C84.5264582,61.9140431 86.3609164,63.8342911 86.3609164,67.0150443 C86.3609164,71.9302452 78.937527,79.6688191 63.4181837,79.6688191 C46.6947513,79.6688191 39.5152104,72.6610911 32.3643439,67.616506 L32.4216925,67.5022749 Z M38.5648777,69.5953849 C41.6456204,71.1435659 44.6093345,71.9730236 49.3601824,71.9730236 C53.6590016,71.9730236 55.9163479,69.3937321 55.8088774,68.2758992 L55.9806903,68.1474475 C57.227208,69.6956285 55.9806903,72.5322897 50.2630743,72.5322897 C45.4047559,72.5322897 40.9338907,71.0705979 38.483284,69.7378241 L38.5648777,69.5953849 Z M74.1574919,45.4050622 L74.1574919,44.888691 L86.2289212,44.888691 C89.3555894,44.888691 91.3136036,44.888691 91.3189655,44.8896235 L91.3189655,45.4050622 L74.1574919,45.4050622 Z M32.3929949,45.4050622 L32.3929949,44.888691 C41.6597011,44.888691 53.9763775,44.888691 65.6738748,44.8896235 L65.6738748,45.4050622 L32.3929949,45.4050622 Z M6.82758621,45.4050622 L6.82758621,44.8896235 L21.0414313,44.8896235 L21.0414313,45.4050622 L6.82758621,45.4050622 Z M72.3994986,57.5826331 L72.5498641,57.2597554 C73.5026446,57.1774624 74.1229894,57.3476434 74.5600982,56.4107153 C74.9967407,55.4740203 76.7018147,51.8169934 76.7018147,51.8169934 C76.7018147,51.8169934 75.6986792,52.0254069 75.204688,52.0044257 L75.3277778,51.7407616 C76.2793928,51.595525 77.4832486,51.4239452 78.1278384,51.1658762 L78.4288024,51.1875568 L77.2219159,53.775707 L77.3538644,53.7670814 C78.4288024,52.2403478 79.2025432,51.1658762 81.008327,51.1658762 C82.8141108,51.1658762 82.1047124,53.7670814 80.5355501,54.2610726 L80.3849516,54.0890266 C80.8148335,53.4442037 80.9439846,52.3053896 79.9979646,52.3053896 C79.0521778,52.3053896 77.1918428,53.9745624 75.6895873,57.1961124 C76.3267171,57.290761 77.4011887,57.1909836 77.9385411,56.9543621 L77.8268744,57.3567353 C77.2683077,57.5502288 76.4941006,57.57121 75.5051857,57.5931237 C74.516737,57.6145712 73.3023905,57.5175913 72.3994986,57.5826331 Z M53.0214522,57.3140035 C54.1679594,57.5576188 55.7296617,56.9556909 56.4462869,56.0376459 L56.5898917,56.1530426 C56.1595436,58.1877549 53.6376007,57.6145013 52.2446808,57.5207851 L52.2906063,57.2990836 C53.2508469,56.3964248 53.8115118,55.6958851 54.3801029,54.4759436 C54.7074099,53.7737721 55.651798,51.5126958 54.333711,51.5126958 C52.7286476,51.5126958 50.8813676,53.9747256 49.380744,57.1960424 C50.0171744,57.2906911 51.0909467,57.1911468 51.6285322,56.9542921 L51.5166324,57.3568985 C50.9578325,57.550392 50.184791,57.5713732 49.1963424,57.5930538 C48.2076606,57.6145013 46.9928479,57.5175214 46.0904222,57.5825632 L46.2407876,57.2599186 C47.1935682,57.1773925 47.813913,57.3478066 48.2505555,56.4106454 C48.6876643,55.4739504 50.3920389,51.8169235 50.3920389,51.8169235 C50.3920389,51.8169235 49.3898359,52.0253369 48.8951453,52.0045889 L49.0182351,51.7409248 C49.9698501,51.5956882 51.1727735,51.4238753 51.8175963,51.1658062 L52.1185603,51.18772 L50.9119069,53.7756371 L51.0440886,53.7670115 C52.1185603,52.2402779 52.8925343,51.1658062 54.6978518,51.1658062 C56.1308692,51.1658062 56.5670455,51.8227516 56.571708,52.6529086 C56.5794011,54.1190297 54.8887809,56.2698381 53.0214522,57.3140035 Z M66.7676958,54.2509783 C67.6363184,52.3873796 69.4013054,51.1658062 71.5721625,51.1658062 C73.7213389,51.1658062 74.2507651,52.3759565 73.8073619,53.358577 C73.2135934,54.6731671 70.445704,54.9202793 68.2459395,54.9268068 C67.9692205,55.9726041 68.0934759,57.4109834 69.2828781,57.4109834 C70.6797612,57.4109834 71.7327854,56.6370095 72.6359104,55.7767794 L72.990493,55.8520786 C72.3885651,56.5826914 71.1418143,57.7543761 69.2828781,57.7543761 C67.4232424,57.7543761 65.8988401,56.1138777 66.7676958,54.2509783 Z M68.3338275,54.6388978 C70.7907285,54.5985672 72.165931,53.255769 72.3885651,52.7776303 C72.6289166,52.2626579 72.3456702,51.4882177 71.5288013,51.4882177 C70.1102376,51.4882177 69.2064132,52.7421954 68.422648,54.4227912 C68.3914093,54.489698 68.3618024,54.5633654 68.3338275,54.6388978 Z M45.0905271,51.1658062 C47.2401698,51.1658062 47.7700623,52.3759565 47.3261929,53.358577 C46.7324243,54.6731671 43.9645349,54.9202793 41.7645373,54.9268068 C41.4880514,55.9726041 41.6123068,57.4109834 42.801709,57.4109834 C44.1985921,57.4109834 45.2520825,56.6370095 46.1547413,55.7767794 L46.509324,55.8520786 C45.907396,56.5826914 44.6606452,57.7543761 42.801709,57.7543761 C40.9420734,57.7543761 39.4176711,56.1138777 40.2865268,54.2509783 C41.1551493,52.3873796 42.9196701,51.1658062 45.0905271,51.1658062 Z M45.907396,52.7776303 C46.1477476,52.2626579 45.8645011,51.4882177 45.0476322,51.4882177 C43.6290685,51.4882177 42.7252441,52.7421954 41.9414789,54.4227912 C41.9102402,54.489698 41.8806334,54.5633654 41.8526584,54.6388978 C44.3095594,54.5985672 45.684762,53.255769 45.907396,52.7776303 Z M64.1327108,52.5632722 C64.8607592,51.0008705 66.9050296,44.0938524 70.4520217,44.0938524 C71.0112878,44.0938524 71.376361,44.2658984 71.591302,44.3738351 L71.505279,44.6743328 C70.8177943,44.4164969 69.2355771,44.1442073 68.1664673,46.4367555 C67.0973574,48.7293036 65.2500775,57.7006408 60.2847548,57.7006408 C57.1466634,57.7006408 57.5592941,55.0670313 58.1351121,53.8312373 C58.7116294,52.5954434 60.3062023,51.1656897 62.2621184,51.1656897 C63.2943945,51.1656897 64.1327108,51.7468695 64.1327108,52.5632722 Z M63.3153757,54.541102 C64.3042906,52.4124405 63.5093354,51.5314623 62.4989731,51.5314623 C61.9184926,51.5314623 60.9417002,51.8324263 59.9196815,54.0247308 C58.8969636,56.2170353 59.4678859,57.3992106 60.3922253,57.3992106 C61.3165647,57.3992106 62.1311023,57.0905535 63.3153757,54.541102 Z M38.1478176,50.5420112 L38.3408448,50.3704314 C39.4157828,51.9827218 39.3512072,52.8427187 39.0075814,54.0890033 C38.6819062,55.2709454 37.3309487,57.6145479 34.923237,57.6145479 C32.5159915,57.6145479 32.1849544,55.4175809 32.8880585,53.9113623 C33.5899969,52.4042112 33.9261627,51.8677913 33.9261627,51.8677913 C33.9261627,51.8677913 33.0314302,52.0253836 32.5369727,52.0044024 L32.6598294,51.7409715 C33.6114444,51.5957348 34.9003907,51.4239219 35.5452136,51.1658529 L35.8893057,51.1658529 C35.1248898,52.8049525 32.3656261,57.3350314 34.923237,57.3140502 C37.4813141,57.2926027 38.9427728,52.1547678 38.1478176,50.5420112 Z M31.8497911,51.2946543 C30.9683466,52.0471807 30.4619998,52.9078771 29.8505138,54.2182709 C29.2390277,55.529131 29.1373854,57.1733594 29.6787009,57.3139336 C30.2589482,57.464299 30.7100445,56.8404574 31.0758171,56.1315252 L31.3548674,56.217082 C30.9683466,57.0120371 30.6459352,57.6577925 29.3131614,57.6577925 C27.9803876,57.6577925 28.0664106,56.303105 28.216776,55.7659857 L28.1526667,55.7517651 C27.4218208,56.705245 26.6977355,57.6431057 25.2577244,57.6431057 C23.8174801,57.6431057 22.2396922,56.1755858 23.1225354,54.2828465 C24.1037572,52.1784299 26.5189289,51.0582658 28.7545946,51.1442888 C30.4533742,51.21003 31.2693106,51.2946543 31.7852155,51.0582658 L31.8497911,51.2946543 Z M28.216776,54.6262391 C29.0695461,52.7976091 29.3991844,52.1760987 29.8931756,51.4881477 C28.2596709,51.3380154 26.0097846,51.9662865 24.7991681,54.5621298 C23.9946548,56.2872525 24.4986704,57.3426079 25.2502644,57.3139336 C26.3680972,57.2708055 27.3640059,56.4558016 28.216776,54.6262391 Z M29.7722538,48.601831 C30.5693071,47.7851953 30.7686287,47.1126305 30.6618576,46.2332842 C30.5012347,44.9093692 29.2020308,43.9990173 27.5839124,44.0869053 C24.589659,44.2493932 23.1326297,48.7011421 21.6424967,51.5382695 C20.1521306,54.3758632 17.7383576,57.4069503 13.5540027,59.1411649 C13.2190025,59.2796409 13.0436927,59.3880439 13.0868208,59.5113669 C13.1259857,59.625598 13.4446672,59.51906 13.6486513,59.4488895 C14.1946293,59.2623897 16.4575706,58.5602182 18.578539,58.5602182 C22.7489065,58.5602182 26.9572733,59.8934582 30.9551285,61.9563786 C34.9532168,64.019532 39.4723388,67.7166564 45.3191059,67.7166564 C53.5299904,67.7166564 54.0032335,61.914183 52.6704597,60.7529889 L52.8425057,60.4949199 C53.5299904,60.7529889 54.7767412,61.4833686 54.4762435,63.0742114 C53.7530907,66.8962906 47.9273049,68.8778504 41.9656073,68.6200145 C38.2722129,68.4603241 32.3356928,65.8682108 28.1653254,63.4611984 C23.9954241,61.0539529 20.9379939,59.4927169 17.6040778,59.305984 C16.3288858,59.2341816 14.7538954,59.4220801 13.6833869,59.7908834 C13.2490756,59.9407825 12.7518206,59.9536044 12.6084489,59.6675604 C12.479531,59.4097245 12.8611561,59.1262449 13.5917689,58.7322642 C15.6945535,57.5985788 16.733124,55.2071858 18.7538487,51.3811435 C20.5146395,48.0462949 23.5429291,43.6856977 27.5839124,43.6856977 C29.9599192,43.6856977 31.0059496,45.0357227 31.1068926,46.230953 C31.186155,47.1704455 30.8795961,48.1926972 30.0571322,48.8874088 L29.7722538,48.601831 Z M22.7018153,39.308875 C22.6108966,39.3531687 22.501328,39.3927999 22.3731095,39.4277686 C22.2448909,39.4627373 22.1012861,39.4942091 21.9429944,39.5221841 C21.7842365,39.550159 21.618718,39.5641465 21.4464388,39.5641465 C21.0781018,39.5641465 20.7377398,39.5116935 20.4253527,39.4067874 C20.1129656,39.3018812 19.8437066,39.1421908 19.6175757,38.9277161 C19.3912116,38.7132414 19.21427,38.4509761 19.0860514,38.1409203 C18.9575997,37.8308645 18.8937236,37.4776806 18.8937236,37.0813686 C18.8937236,36.6850567 18.9575997,36.3318728 19.0860514,36.0218169 C19.21427,35.7117611 19.393776,35.4494958 19.6245694,35.2350211 C19.8553629,35.0205464 20.1316156,34.8573591 20.4533277,34.7454593 C20.7750398,34.6335594 21.1291561,34.5776095 21.5163762,34.5776095 C21.8241008,34.5776095 22.104783,34.6090814 22.359122,34.672025 C22.6132279,34.7349687 22.8381932,34.8109673 23.0340179,34.8993216 C22.996718,34.9645965 22.9664118,35.0531839 22.9430993,35.1650837 C22.9197868,35.2769836 22.9011369,35.3702334 22.8871494,35.4448333 L22.8451869,35.4588208 C22.798562,35.4028709 22.7332871,35.3399272 22.6493622,35.2699898 C22.5654373,35.2000524 22.467525,35.1324463 22.3556251,35.0671714 C22.2437253,35.0018964 22.1178379,34.9473453 21.9779631,34.9028185 C21.8380883,34.8585248 21.684226,34.8363779 21.5163762,34.8363779 C21.241056,34.8363779 20.9860176,34.8806716 20.7505617,34.969259 C20.5151057,35.0578464 20.309956,35.1942243 20.1351125,35.3783928 C19.960269,35.5625613 19.823891,35.795686 19.7259787,36.0777669 C19.6280663,36.3598477 19.5791101,36.6943817 19.5791101,37.0813686 C19.5791101,37.4683556 19.6280663,37.8028895 19.7259787,38.0849704 C19.823891,38.3670513 19.960269,38.6001759 20.1351125,38.7843444 C20.309956,38.9687461 20.5151057,39.1048909 20.7505617,39.1934783 C20.9860176,39.2820656 21.241056,39.3263593 21.5163762,39.3263593 C21.684226,39.3263593 21.8390208,39.3053781 21.98146,39.2634157 C22.1236661,39.2214532 22.2542159,39.1713314 22.3731095,39.1130503 C22.4920031,39.0547691 22.5992404,38.9918254 22.6948215,38.9242193 C22.7901695,38.8568462 22.8708307,38.7971663 22.9361056,38.7458789 L22.9640805,38.7738538 L22.9011369,39.1864845 C22.8591744,39.2237845 22.7927339,39.2645813 22.7018153,39.308875 Z M29.2443197,39.4732279 C29.1790447,39.4639029 29.1172667,39.4592404 29.0589855,39.4592404 L28.8736514,39.4592404 L28.6883173,39.4592404 C28.6300361,39.4592404 28.5682581,39.4639029 28.5029832,39.4732279 C28.4703457,39.3659905 28.426052,39.2366063 28.3701021,39.0850753 C28.3141522,38.9335442 28.2523741,38.7750195 28.184768,38.6095009 C28.1171618,38.4442155 28.04839,38.2761326 27.9784526,38.1059516 C27.9085152,37.9357706 27.8432403,37.7737489 27.7826279,37.6198866 C27.6334281,37.6152242 27.481897,37.6117273 27.3280348,37.609396 C27.1741725,37.6070648 27.0203102,37.6058992 26.8664479,37.6058992 C26.7219106,37.6058992 26.5797045,37.6070648 26.4398297,37.609396 C26.2999549,37.6117273 26.1577488,37.6152242 26.0132115,37.6198866 C25.8640117,37.9835612 25.7287994,38.3297513 25.6075746,38.6584571 C25.4863497,38.9871629 25.3954311,39.2587532 25.3348187,39.4732279 C25.2555563,39.4639029 25.1693002,39.4592404 25.0760503,39.4592404 C24.9828004,39.4592404 24.8965443,39.4639029 24.8172819,39.4732279 C25.1949439,38.6575246 25.5632809,37.8460176 25.9222929,37.0394062 C26.2813049,36.2327948 26.6426482,35.4121959 27.0063227,34.5776095 L27.1392038,34.5776095 C27.2511036,34.8480342 27.3723284,35.1406056 27.5028783,35.455324 C27.6334281,35.7700423 27.7663092,36.0882575 27.9015215,36.4099695 C28.0367338,36.7316816 28.1719461,37.0510624 28.3071584,37.368112 C28.4423707,37.6851616 28.5694237,37.9800643 28.6883173,38.2528202 C28.8072109,38.525576 28.9144482,38.7694245 29.0100293,38.9836661 C29.1056105,39.1981408 29.1837072,39.361328 29.2443197,39.4732279 Z M26.1460926,37.2981746 C26.2673174,37.2981746 26.3932048,37.3005058 26.5237546,37.3051683 C26.6543044,37.3098308 26.7801917,37.3121621 26.9014166,37.3121621 C27.0319664,37.3121621 27.1625162,37.3109964 27.293066,37.3086652 C27.4233827,37.3063339 27.5541657,37.3028371 27.6847155,37.2981746 L26.9084103,35.5217645 L26.1460926,37.2981746 Z M31.7934448,38.8192898 C31.8563885,38.9057791 31.9333196,38.9836427 32.0242383,39.0535801 C32.1151569,39.1235175 32.2212286,39.1806331 32.3424535,39.2249268 C32.4636783,39.2694536 32.5988906,39.2913673 32.7480904,39.2913673 C32.9019527,39.2913673 33.0406619,39.264558 33.164218,39.2109393 C33.2877741,39.1573206 33.3926802,39.085052 33.4789363,38.9941333 C33.5651924,38.9032147 33.631633,38.7959774 33.6782579,38.6724213 C33.7248828,38.5488652 33.7481953,38.4171498 33.7481953,38.2772749 C33.7481953,38.0628002 33.693411,37.8926192 33.5838424,37.7667319 C33.4742738,37.6408446 33.3378959,37.5359384 33.1747086,37.4520136 C33.0115213,37.3680887 32.8355122,37.2911575 32.6466812,37.2212201 C32.4578502,37.1512827 32.281841,37.063861 32.1186538,36.9589549 C31.9554665,36.8540487 31.8190885,36.7202352 31.7095199,36.5568148 C31.5999513,36.3936275 31.545167,36.1744903 31.545167,35.8994032 C31.545167,35.7035784 31.5801357,35.525238 31.6500731,35.364382 C31.7200106,35.203526 31.8214198,35.0650499 31.9543009,34.9482545 C32.0871819,34.8319252 32.2468723,34.7407735 32.4333721,34.6754986 C32.6198718,34.6102237 32.8296841,34.5775862 33.0628087,34.5775862 C33.2866084,34.5775862 33.4801019,34.6043955 33.6432892,34.6580142 C33.8064765,34.7116329 33.9580075,34.7943922 34.0978823,34.906292 C34.0559199,34.9857875 34.0209512,35.0697124 33.9929762,35.1580667 C33.9650013,35.2466541 33.9370263,35.3585539 33.9090513,35.4937662 L33.8251265,35.4937662 C33.801814,35.4284913 33.7703422,35.3573883 33.730711,35.2804571 C33.6910798,35.203526 33.6374611,35.1326561 33.5698549,35.067148 C33.5022488,35.0018731 33.4218207,34.947322 33.3285709,34.9027951 C33.235321,34.8585015 33.1234212,34.8363546 32.9928713,34.8363546 C32.8623215,34.8363546 32.7422623,34.8573358 32.6326937,34.8992983 C32.5231251,34.9412607 32.427544,35.0007075 32.3459503,35.0776387 C32.2643567,35.1545698 32.201413,35.2466541 32.1571193,35.3538914 C32.1128256,35.4611288 32.0906788,35.5776911 32.0906788,35.7035784 C32.0906788,35.9227156 32.1454631,36.0952279 32.2550317,36.2211152 C32.3646003,36.3470026 32.5009782,36.4530743 32.6641655,36.5393304 C32.8273528,36.6255866 33.0033619,36.7025177 33.1921929,36.7701239 C33.3810239,36.83773 33.5570331,36.9204893 33.7202203,37.0184017 C33.8834076,37.116314 34.0197856,37.2422013 34.1293542,37.3960636 C34.2389228,37.5499259 34.2937071,37.7553088 34.2937071,38.0115128 C34.2937071,38.2259875 34.2552415,38.428806 34.1783103,38.6199682 C34.1013792,38.8111305 33.9894794,38.9778146 33.8426108,39.1200207 C33.6957423,39.2622267 33.5162362,39.3717953 33.3040928,39.4487265 C33.0919493,39.5256576 32.8506653,39.5641232 32.5802406,39.5641232 C32.291166,39.5641232 32.0568757,39.5256576 31.8773697,39.4487265 C31.6978637,39.3717953 31.5474983,39.2843736 31.4262735,39.1864612 C31.4682359,39.0792239 31.4973765,38.9824771 31.5136952,38.896221 C31.5300139,38.8099648 31.545167,38.6992306 31.5591545,38.5640183 L31.6430794,38.5640183 C31.6803794,38.6479432 31.7305012,38.7330337 31.7934448,38.8192898 Z M37.9934424,35.032156 C37.8719845,35.032156 37.7451646,35.0333217 37.6122836,35.0356529 C37.4794025,35.0379841 37.3465214,35.0426466 37.2136404,35.0496404 C37.0807593,35.0566341 36.9525407,35.0650266 36.8289846,35.0741185 C36.7054286,35.0836766 36.5946943,35.0950997 36.496782,35.1090872 C36.5200944,35.0251623 36.5317507,34.9505624 36.5317507,34.8852875 C36.5317507,34.834 36.5200944,34.7617314 36.496782,34.6684815 C36.8045065,34.6778065 37.1052374,34.6859659 37.3989745,34.6929596 C37.6927116,34.6999534 37.9934424,34.7034502 38.301167,34.7034502 C38.6088916,34.7034502 38.9096224,34.6999534 39.2033595,34.6929596 C39.4970966,34.6859659 39.7978275,34.6778065 40.1055521,34.6684815 C40.0820065,34.7617314 40.0705834,34.8363313 40.0705834,34.8922812 C40.0705834,34.9528936 40.0820065,35.0251623 40.1055521,35.1090872 C40.0076397,35.0950997 39.8969055,35.0836766 39.7733494,35.0741185 C39.6497933,35.0650266 39.5215747,35.0566341 39.3886937,35.0496404 C39.2558126,35.0426466 39.1229315,35.0379841 38.9900505,35.0356529 C38.8571694,35.0333217 38.7301164,35.032156 38.6088916,35.032156 C38.5949041,35.512626 38.5879104,35.994961 38.5879104,36.4798603 L38.5879104,37.6827837 C38.5879104,37.9905083 38.5937385,38.2938035 38.6053947,38.59197 C38.617051,38.8903696 38.6298728,39.1843398 38.6438603,39.4731813 C38.5366229,39.4638563 38.4223919,39.4591938 38.301167,39.4591938 C38.1799422,39.4591938 38.0657111,39.4638563 37.9584737,39.4731813 C37.9724612,39.1843398 37.9852831,38.8903696 37.9969393,38.59197 C38.0083624,38.2938035 38.0144237,37.9905083 38.0144237,37.6827837 L38.0144237,36.4798603 C38.0144237,35.994961 38.0074299,35.512626 37.9934424,35.032156 Z M42.6618575,35.5742175 C42.6502012,35.2781492 42.6373794,34.9762527 42.6233919,34.6685281 C42.6837712,34.6778531 42.7422855,34.6860125 42.7982354,34.6930062 C42.8541853,34.7 42.9101353,34.7034968 42.9660852,34.7034968 C43.0220351,34.7034968 43.077985,34.7 43.133935,34.6930062 C43.1898849,34.6860125 43.2481661,34.6778531 43.3087785,34.6685281 C43.294791,34.9762527 43.2819691,35.2781492 43.2703129,35.5742175 C43.2586567,35.870519 43.2528286,36.1721824 43.2528286,36.4799069 C43.2528286,37.0673811 43.2549267,37.5767586 43.2598223,38.0080392 C43.2642517,38.4393199 43.2689142,38.8251413 43.2738098,39.1655033 C43.6046137,39.1655033 43.9216633,39.1620064 44.2249585,39.1550127 C44.5277875,39.148019 44.8543951,39.1212096 45.2040822,39.0745847 C45.1807697,39.1585096 45.1691135,39.228447 45.1691135,39.2843969 C45.1691135,39.3356843 45.1807697,39.398628 45.2040822,39.4732279 C44.9893743,39.4639029 44.7748996,39.4592404 44.560658,39.4592404 L43.9172339,39.4592404 L43.2703129,39.4592404 C43.0628319,39.4592404 42.8471916,39.4639029 42.6233919,39.4732279 C42.6373794,39.1841533 42.6502012,38.8904162 42.6618575,38.5920166 C42.6732806,38.2938501 42.6793418,37.9905549 42.6793418,37.6828303 L42.6793418,36.4799069 C42.6793418,36.1721824 42.6732806,35.870519 42.6618575,35.5742175 Z M47.9071629,35.5637502 C47.8955066,35.2653507 47.8826848,34.9669511 47.8686973,34.6685515 C48.0785095,34.6778764 48.286923,34.6860358 48.4946371,34.6930296 C48.7021181,34.7000233 48.9107646,34.7035202 49.1205769,34.7035202 C49.3303891,34.7035202 49.53787,34.7000233 49.7430198,34.6930296 C49.9479364,34.6860358 50.1556505,34.6778764 50.3654627,34.6685515 C50.3514752,34.7384889 50.3447146,34.8084263 50.3447146,34.8783637 C50.3447146,34.9483011 50.3514752,35.0182385 50.3654627,35.0881759 C50.2162629,35.0788509 50.0796518,35.0695259 49.9563289,35.0602009 C49.8327728,35.0508759 49.7022229,35.041551 49.5646794,35.032226 C49.4271358,35.022901 49.2767704,35.0147416 49.1135831,35.0077479 C48.9503958,35.0007541 48.754338,34.9972573 48.5261089,34.9972573 C48.5214464,35.1464571 48.5156183,35.2886631 48.5086246,35.4238754 C48.5016308,35.5590878 48.498134,35.71295 48.498134,35.8854623 C48.498134,36.0672996 48.4992996,36.2444743 48.5016308,36.4169866 C48.5039621,36.5894989 48.5051277,36.7200487 48.5051277,36.8086361 C48.7102774,36.8086361 48.8942128,36.8063048 49.0576332,36.8016423 C49.2208205,36.7969798 49.3697871,36.7911517 49.5049995,36.784158 C49.6402118,36.7771642 49.7649335,36.7701705 49.8791646,36.7631767 C49.9936288,36.756183 50.1020318,36.7480236 50.2043735,36.7386987 C50.1906192,36.8086361 50.1833923,36.8809047 50.1833923,36.9555046 C50.1833923,37.025442 50.1906192,37.0953794 50.2043735,37.1653168 C50.0831487,37.1513293 49.9421082,37.1396731 49.7814853,37.1303481 C49.6206293,37.1210231 49.4600064,37.115195 49.2986841,37.1128638 C49.1380612,37.1105325 48.986297,37.1082013 48.8443241,37.10587 C48.7021181,37.1035388 48.5890526,37.1023732 48.5051277,37.1023732 C48.5051277,37.1443356 48.5039621,37.1897949 48.5016308,37.2387511 C48.4992996,37.2877073 48.498134,37.3494853 48.498134,37.4240852 L48.498134,37.6968411 L48.498134,38.1164655 C48.498134,38.3822277 48.4992996,38.6013649 48.5016308,38.7738771 C48.5039621,38.9463894 48.5074589,39.0769392 48.5121214,39.1655266 L49.0016833,39.1655266 C49.178858,39.1655266 49.3525359,39.1620297 49.5227169,39.155036 C49.6926648,39.1480423 49.853754,39.1387173 50.005285,39.127061 C50.156583,39.1154048 50.2885315,39.0979205 50.4001983,39.074608 C50.3911064,39.1072454 50.3850451,39.1433798 50.382947,39.183011 C50.3806158,39.2226422 50.379217,39.2587765 50.379217,39.2914139 C50.379217,39.3660138 50.3864439,39.4266263 50.4001983,39.4732512 C50.1906192,39.4636931 49.9817394,39.4592637 49.7744916,39.4592637 L49.1415581,39.4592637 L48.5051277,39.4592637 C48.2953155,39.4592637 48.0829389,39.4636931 47.8686973,39.4732512 C47.8826848,39.1748516 47.8955066,38.8776176 47.9071629,38.5815493 C47.918586,38.2854809 47.9246472,37.9835845 47.9246472,37.6758599 L47.9246472,36.4729365 C47.9246472,36.1652119 47.918586,35.8621498 47.9071629,35.5637502 Z M56.8453031,35.5741709 C56.8334138,35.2781026 56.8205919,34.9762061 56.8068376,34.6684815 C56.9420499,34.6778065 57.0746978,34.6859659 57.2054808,34.6929596 C57.3357975,34.6999534 57.4689117,34.7034502 57.604124,34.7034502 C57.7393363,34.7034502 57.8719843,34.6976221 58.0027672,34.6859659 C58.1330839,34.6743096 58.2661981,34.6684815 58.4014104,34.6684815 C58.597002,34.6684815 58.7835018,34.6871315 58.9609097,34.7244314 C59.1380844,34.7617314 59.2931123,34.8235094 59.4257603,34.9097656 C59.5586413,34.9962548 59.6637806,35.1090872 59.7407117,35.248962 C59.8176429,35.3888368 59.8561084,35.5636803 59.8561084,35.7734925 C59.8561084,35.9972922 59.8057535,36.1896201 59.7055099,36.3504761 C59.6054994,36.5113322 59.4828758,36.6442132 59.3383385,36.7491193 C59.1938012,36.8540254 59.0387733,36.9356191 58.8734879,36.9939002 C58.7077363,37.0521814 58.557604,37.0908801 58.4221585,37.109297 C58.4783416,37.1792344 58.5552727,37.2771467 58.6531851,37.4030341 C58.7510974,37.5289214 58.8604329,37.6678637 58.9818909,37.8191616 C59.1028826,37.9706927 59.2287699,38.1294506 59.3595529,38.294736 C59.4901027,38.4604876 59.61599,38.6190124 59.7369817,38.7703103 C59.8584397,38.9220745 59.9724377,39.0605506 60.0799081,39.1864379 C60.1871455,39.3123252 60.2731685,39.4079064 60.3384434,39.4731813 C60.268506,39.4638563 60.1988017,39.4591938 60.1288643,39.4591938 L59.918819,39.4591938 L59.7160005,39.4591938 C59.6460631,39.4591938 59.5784569,39.4638563 59.513182,39.4731813 C59.4432446,39.3752689 59.3371729,39.2284003 59.1952,39.0325756 C59.0529939,38.8367509 58.8956347,38.6269387 58.7228894,38.403139 C58.5503771,38.1793393 58.374368,37.9567052 58.1950951,37.7352367 C58.0153559,37.5137683 57.851003,37.3261029 57.7020364,37.1722406 L57.4362742,37.1722406 L57.4362742,37.6827837 C57.4362742,37.9905083 57.4418692,38.2938035 57.4535254,38.59197 C57.4651817,38.8903696 57.4782367,39.1843398 57.491991,39.4731813 C57.3847537,39.4638563 57.2705226,39.4591938 57.1492977,39.4591938 C57.0280729,39.4591938 56.9140749,39.4638563 56.8068376,39.4731813 C56.8205919,39.1843398 56.8334138,38.8903696 56.8453031,38.59197 C56.8569594,38.2938035 56.8627875,37.9905083 56.8627875,37.6827837 L56.8627875,36.4798603 C56.8627875,36.1721357 56.8569594,35.8704724 56.8453031,35.5741709 Z M57.6495833,36.9064785 C57.7262813,36.9113741 57.8113718,36.9134722 57.9048548,36.9134722 C58.049159,36.9134722 58.1995244,36.8971535 58.355718,36.864516 C58.5119115,36.8321117 58.6552832,36.7749962 58.7860661,36.6931694 C58.916616,36.6115758 59.0247858,36.5020072 59.1112751,36.3644636 C59.1975312,36.22692 59.2404262,36.0532421 59.2404262,35.8434299 C59.2404262,35.6615927 59.2068562,35.5112273 59.13925,35.3923337 C59.0716439,35.2734401 58.9842221,35.1790246 58.8769848,35.1090872 C58.7697474,35.0391498 58.6531851,34.9913592 58.5272977,34.9657155 C58.4014104,34.9400718 58.2776212,34.9272499 58.1566295,34.9272499 C57.9934422,34.9272499 57.8582299,34.9307468 57.7509925,34.9377405 C57.6437552,34.9447343 57.5526034,34.9528936 57.4782367,34.9622186 C57.4689117,35.2186558 57.4595867,35.4727617 57.4502617,35.7245363 C57.4407036,35.976311 57.4362742,36.2280857 57.4362742,36.4798603 L57.4362742,36.8785035 C57.501316,36.892491 57.5726522,36.901816 57.6495833,36.9064785 Z M62.6847967,36.0218403 C62.8130153,35.7117844 62.9925213,35.4495192 63.2230816,35.2350444 C63.4541082,35.0205697 63.7303609,34.8573825 64.052073,34.7454826 C64.3737851,34.6335828 64.7258033,34.5776328 65.1081278,34.5776328 C65.4951148,34.5776328 65.8494643,34.6335828 66.1711764,34.7454826 C66.4928885,34.8573825 66.7691412,35.0205697 66.9999346,35.2350444 C67.2307281,35.4495192 67.410001,35.7117844 67.5384527,36.0218403 C67.6666712,36.3318961 67.7307805,36.68508 67.7307805,37.0813919 C67.7307805,37.4777039 67.6666712,37.8308878 67.5384527,38.1409436 C67.410001,38.4509995 67.2307281,38.7132647 66.9999346,38.9277394 C66.7691412,39.1422141 66.4928885,39.3019046 66.1711764,39.4068107 C65.8494643,39.5117168 65.4951148,39.5641698 65.1081278,39.5641698 C64.7258033,39.5641698 64.3737851,39.5117168 64.052073,39.4068107 C63.7303609,39.3019046 63.4541082,39.1422141 63.2230816,38.9277394 C62.9925213,38.7132647 62.8130153,38.4509995 62.6847967,38.1409436 C62.5565782,37.8308878 62.4924689,37.4777039 62.4924689,37.0813919 C62.4924689,36.68508 62.5565782,36.3318961 62.6847967,36.0218403 Z M66.8985254,36.0777902 C66.800613,35.7957093 66.6642351,35.5625846 66.4893916,35.3784161 C66.3145481,35.1942476 66.1091652,35.0578697 65.8739424,34.9692823 C65.6384865,34.8806949 65.383215,34.8364012 65.1081278,34.8364012 C64.8377032,34.8364012 64.5845298,34.8806949 64.3490739,34.9692823 C64.1138511,35.0578697 63.9087013,35.1942476 63.7338578,35.3784161 C63.5590143,35.5625846 63.4226364,35.7957093 63.324724,36.0777902 C63.2268116,36.359871 63.1778554,36.694405 63.1778554,37.0813919 C63.1778554,37.4683789 63.2268116,37.8029128 63.324724,38.0849937 C63.4226364,38.3670746 63.5590143,38.6001993 63.7338578,38.7843678 C63.9087013,38.9685363 64.1138511,39.1049142 64.3490739,39.1935016 C64.5845298,39.282089 64.8377032,39.3263826 65.1081278,39.3263826 C65.383215,39.3263826 65.6384865,39.282089 65.8739424,39.1935016 C66.1091652,39.1049142 66.3145481,38.9685363 66.4893916,38.7843678 C66.6642351,38.6001993 66.800613,38.3670746 66.8985254,38.0849937 C66.9964378,37.8029128 67.045394,37.4683789 67.045394,37.0813919 C67.045394,36.694405 66.9964378,36.359871 66.8985254,36.0777902 Z M73.874735,39.308875 C73.7838163,39.3531687 73.6742477,39.3927999 73.5460292,39.4277686 C73.4178106,39.4627373 73.2744389,39.4942091 73.1159141,39.5221841 C72.9573893,39.550159 72.7916377,39.5641465 72.6193585,39.5641465 C72.2510215,39.5641465 71.9106595,39.5116935 71.5982724,39.4067874 C71.2861185,39.3018812 71.0166263,39.1421908 70.7907285,38.9277161 C70.5643644,38.7132414 70.3871897,38.4509761 70.2589711,38.1409203 C70.1307525,37.8308645 70.0666432,37.4776806 70.0666432,37.0813686 C70.0666432,36.6850567 70.1307525,36.3318728 70.2589711,36.0218169 C70.3871897,35.7117611 70.5669288,35.4494958 70.7974891,35.2350211 C71.0282826,35.0205464 71.3047684,34.8573591 71.6262474,34.7454593 C71.9479594,34.6335594 72.302309,34.5776095 72.6892959,34.5776095 C72.9970205,34.5776095 73.2779358,34.6090814 73.5320417,34.672025 C73.7861476,34.7349687 74.0111129,34.8109673 74.2069376,34.8993216 C74.1696377,34.9645965 74.1393315,35.0531839 74.116019,35.1650837 C74.0927065,35.2769836 74.0740566,35.3702334 74.0600691,35.4448333 L74.0181066,35.4588208 C73.9714817,35.4028709 73.9064399,35.3399272 73.8222819,35.2699898 C73.738357,35.2000524 73.6404446,35.1324463 73.5287779,35.0671714 C73.416645,35.0018964 73.2907576,34.9473453 73.1511159,34.9028185 C73.011008,34.8585248 72.8573788,34.8363779 72.6892959,34.8363779 C72.4142088,34.8363779 72.1589373,34.8806716 71.9234814,34.969259 C71.6880254,35.0578464 71.4828757,35.1942243 71.3080322,35.3783928 C71.1331887,35.5625613 70.9968107,35.795686 70.8988984,36.0777669 C70.800986,36.3598477 70.7520298,36.6943817 70.7520298,37.0813686 C70.7520298,37.4683556 70.800986,37.8028895 70.8988984,38.0849704 C70.9968107,38.3670513 71.1331887,38.6001759 71.3080322,38.7843444 C71.4828757,38.9687461 71.6880254,39.1048909 71.9234814,39.1934783 C72.1589373,39.2820656 72.4142088,39.3263593 72.6892959,39.3263593 C72.8573788,39.3263593 73.0121736,39.3053781 73.1543797,39.2634157 C73.2968189,39.2214532 73.4271356,39.1713314 73.5460292,39.1130503 C73.6651559,39.0547691 73.7723932,38.9918254 73.8679743,38.9242193 C73.9633223,38.8568462 74.0437504,38.7971663 74.1090253,38.7458789 L74.1370002,38.7738538 L74.0740566,39.1864845 C74.0320941,39.2237845 73.9658867,39.2645813 73.874735,39.308875 Z M76.8541384,38.59197 C76.8657946,38.2938035 76.8716227,37.9905083 76.8716227,37.6827837 L76.8716227,36.4798603 C76.8716227,36.1721357 76.8657946,35.8704724 76.8541384,35.5741709 C76.842249,35.2781026 76.8296603,34.9762061 76.8156728,34.6684815 C76.8762852,34.6778065 76.9345664,34.6859659 76.9905163,34.6929596 C77.0464662,34.6999534 77.102183,34.7034502 77.1583661,34.7034502 C77.214316,34.7034502 77.2702659,34.6999534 77.3259827,34.6929596 C77.3821658,34.6859659 77.4404469,34.6778065 77.5008262,34.6684815 C77.4870719,34.9762061 77.4740169,35.2781026 77.4623607,35.5741709 C77.4509376,35.8704724 77.4451094,36.1721357 77.4451094,36.4798603 L77.4451094,36.864516 C77.4451094,36.901816 77.4590969,36.920466 77.4870719,36.920466 C77.5057219,36.920466 77.5383593,36.8994847 77.5849842,36.8575223 C77.7481715,36.7176475 77.919285,36.5593558 78.0990242,36.381948 C78.2782971,36.2047732 78.4592018,36.0208378 78.6410391,35.8294424 C78.8226432,35.6385133 79.0023823,35.4438542 79.1795571,35.2454651 C79.3564987,35.0473091 79.5269129,34.8549813 79.6901001,34.6684815 C79.7413876,34.6778065 79.7903438,34.6859659 79.8369687,34.6929596 C79.8833605,34.6999534 79.9299854,34.7034502 79.9768435,34.7034502 C80.0327934,34.7034502 80.0887434,34.6999534 80.1446933,34.6929596 C80.2004101,34.6859659 80.2565931,34.6778065 80.312543,34.6684815 C80.1493558,34.8083563 79.9651873,34.9738749 79.7600375,35.1650371 C79.5546547,35.3564325 79.3483394,35.5520241 79.1410915,35.7525113 C78.9336105,35.9529985 78.7352214,36.1499889 78.5466236,36.3434824 C78.3577926,36.537209 78.2002003,36.7062244 78.074313,36.8505286 C78.4519749,37.2750486 78.8333669,37.7072618 79.2180227,38.1478674 C79.6026784,38.5884731 79.9931622,39.0302444 80.3894742,39.4731813 C80.3195368,39.4638563 80.2493663,39.4591938 80.179662,39.4591938 L79.9698498,39.4591938 L79.7775219,39.4591938 C79.7145782,39.4591938 79.6502358,39.4638563 79.585194,39.4731813 C79.4173443,39.282019 79.2320101,39.0631149 79.0291917,38.8157697 C78.8263732,38.5686575 78.6279841,38.3297047 78.4344906,38.0989112 C78.2409971,37.8681178 78.0661536,37.6606368 77.9099601,37.4764683 C77.7537665,37.2922998 77.6383698,37.1631488 77.564003,37.0883157 C77.5267031,37.0510158 77.4987281,37.0323658 77.4800781,37.0323658 C77.4565325,37.0323658 77.4451094,37.0463533 77.4451094,37.0743283 L77.4451094,37.6827837 C77.4451094,37.9905083 77.4509376,38.2938035 77.4623607,38.59197 C77.4740169,38.8903696 77.4870719,39.1843398 77.5008262,39.4731813 C77.3935889,39.4638563 77.2793578,39.4591938 77.1583661,39.4591938 C77.0369081,39.4591938 76.9229101,39.4638563 76.8156728,39.4731813 C76.8296603,39.1843398 76.842249,38.8903696 76.8541384,38.59197 Z" id="Combined-Shape" fill="#FFFFFF"></path>
            </g>
        </g>
    </g>
</svg>